<svg width="89" height="86" viewBox="0 0 89 86" fill="none" xmlns="http://www.w3.org/2000/svg">
<path d="M85.1852 21.6507C84.5502 18.6193 84.7197 18.8571 84.0215 13.7354L74.4789 15.5978C82.0112 10.5915 85.4978 7.38196 88.6764 0C89.4025 10.0569 88.8378 14.8612 85.1852 21.6507Z" fill="#F2B203"/>
<path d="M70.3311 49.8199C70.3311 69.3631 54.4921 85.206 34.9536 85.206C24.6834 85.206 15.4354 80.8286 8.97251 73.8374C9.17517 73.825 9.3797 73.8118 9.58613 73.798C37.0998 71.9514 53.2438 61.2121 68.343 38.0953L68.3435 38.0969C71.6296 33.0202 74.8984 27.337 78.2391 20.9966C73.818 24.9488 69.5396 28.5198 65.3489 31.7026C65.3495 31.7036 65.3501 31.7046 65.3507 31.7056C43.3907 50.2548 23.6083 54.1914 0.0434971 44.2319C0.0290592 44.2632 0.0145594 44.2945 0 44.3258C2.63907 27.3917 17.2835 14.4338 34.9536 14.4338C47.5362 14.4338 58.5845 21.0042 64.8564 30.9021C69.5849 27.3053 74.4456 23.2055 79.4934 18.6094C80.1603 18.0022 80.8304 17.3864 81.5039 16.7618C81.0911 17.575 80.6795 18.3784 80.269 19.1721C76.3849 26.683 72.5572 33.444 68.738 39.2888C69.7733 42.6153 70.3311 46.1525 70.3311 49.8199Z" fill="#07689F"/>
</svg>
